<?xml version="1.0"?>
<svg xmlns="http://www.w3.org/2000/svg" xmlns:xlink="http://www.w3.org/1999/xlink" version="1.1" id="Capa_1" x="0px" y="0px" viewBox="0 0 381.39 381.39" style="enable-background:new 0 0 381.39 381.39;" xml:space="preserve" width="512px" height="512px" class=""><g transform="matrix(-1.83697e-16, -1, 1, -1.83697e-16, 0, 381.39)"><g>
	<g>
		<g>
			<path d="M365.499,174.8H54.253l68.205-68.205c6.198-6.198,6.198-16.273,0-22.47     c-6.198-6.198-16.273-6.198-22.47,0L4.64,179.472l-0.095,0.159l-3.305,4.99L0,190.691v0.064l1.24,6.007l3.305,4.99l0.095,0.191     l95.347,95.347c6.198,6.166,16.273,6.166,22.47,0c6.198-6.166,6.198-16.304,0-22.47l-68.205-68.237h311.246     c8.74,0,15.891-7.119,15.891-15.891C381.39,181.919,374.239,174.8,365.499,174.8z" data-original="#090509" class="active-path" data-old_color="#50707E" fill="#03A9F4"/>
		</g>
	</g>
</g></g> </svg>
